<svg width="27" height="26" viewBox="0 0 27 26" fill="none" xmlns="http://www.w3.org/2000/svg">
<path d="M1.9002 0.199951C2.21846 0.199951 2.52368 0.326379 2.74872 0.551423C2.97377 0.776467 3.1002 1.08169 3.1002 1.39995V21.4C3.1002 22.504 3.9962 23.4 5.1002 23.4H25.1002C25.4185 23.4 25.7237 23.5264 25.9487 23.7514C26.1738 23.9765 26.3002 24.2817 26.3002 24.6C26.3002 24.9182 26.1738 25.2234 25.9487 25.4485C25.7237 25.6735 25.4185 25.8 25.1002 25.8H5.1002C3.93324 25.8 2.81409 25.3364 1.98893 24.5112C1.16377 23.6861 0.700195 22.5669 0.700195 21.4V1.39995C0.700195 1.08169 0.826623 0.776467 1.05167 0.551423C1.27671 0.326379 1.58194 0.199951 1.9002 0.199951ZM23.1002 5.79995V21.8H5.1002C4.99411 21.8 4.89237 21.7578 4.81735 21.6828C4.74234 21.6078 4.7002 21.506 4.7002 21.4V9.90235L8.3754 8.27035C8.49001 8.2192 8.61504 8.19574 8.7404 8.20186C8.86575 8.20797 8.98791 8.24349 9.097 8.30555L14.225 11.2352L21.801 5.17595C21.9186 5.08202 22.0604 5.02318 22.21 5.0062C22.3595 4.98922 22.5109 5.01478 22.6466 5.07995C22.7823 5.14513 22.8968 5.24727 22.9771 5.37463C23.0573 5.50199 23.1 5.64942 23.1002 5.79995Z" fill="#3479EA"/>
</svg>
