<svg width="95" height="95" viewBox="0 0 95 95" fill="none" xmlns="http://www.w3.org/2000/svg">
<g opacity="0.12">
<path d="M71.7118 47.8556C80.527 47.8556 86.4674 54.0984 86.4674 63.3482C86.4674 71.6719 79.6399 78.6065 70.3924 78.6065C60.2634 78.6065 52.7789 70.2827 52.7789 57.5685C52.7789 28.6698 73.4749 17.1104 86.4674 15.7212V28.4354C77.6579 30.0533 67.7534 39.0688 67.3099 49.0161C67.7534 48.7874 69.5109 47.8556 71.7118 47.8556ZM26.7994 47.8556C35.6033 47.8556 41.5494 54.0984 41.5494 63.3482C41.5494 71.6719 34.7218 78.6065 25.4743 78.6065C15.3453 78.6065 7.86084 70.2827 7.86084 57.5685C7.86084 28.6698 28.5568 17.1104 41.5494 15.7212V28.4354C32.7398 30.0533 22.8354 39.0688 22.3918 49.0161C22.8354 48.7874 24.5928 47.8556 26.7994 47.8556Z" fill="#050505"/>
</g>
</svg>
