<svg width="28" height="32" viewBox="0 0 28 32" fill="none" xmlns="http://www.w3.org/2000/svg">
<path d="M11.4694 6.30306C5.57607 6.30306 0.802734 6.96973 0.802734 11.6364V24.9697C0.802734 26.1031 1.29607 27.1831 2.13607 27.9297V30.3031C2.13607 31.0364 2.73607 31.6364 3.4694 31.6364H4.80273C5.53607 31.6364 6.13607 31.0364 6.13607 30.3031V28.9697H16.8027V30.3031C16.8027 31.0364 17.4027 31.6364 18.1361 31.6364H19.4694C20.2027 31.6364 20.8027 31.0364 20.8027 30.3031V27.9297C21.6427 27.1831 22.1361 26.1031 22.1361 24.9697V11.6364C22.1361 6.96973 17.3627 6.30306 11.4694 6.30306ZM5.4694 26.3031C4.36273 26.3031 3.4694 25.4097 3.4694 24.3031C3.4694 23.1964 4.36273 22.3031 5.4694 22.3031C6.57607 22.3031 7.4694 23.1964 7.4694 24.3031C7.4694 25.4097 6.57607 26.3031 5.4694 26.3031ZM17.4694 26.3031C16.3627 26.3031 15.4694 25.4097 15.4694 24.3031C15.4694 23.1964 16.3627 22.3031 17.4694 22.3031C18.5761 22.3031 19.4694 23.1964 19.4694 24.3031C19.4694 25.4097 18.5761 26.3031 17.4694 26.3031ZM19.4694 18.3031H3.4694V11.6364H19.4694V18.3031ZM27.4694 6.30306V19.6364C27.4694 20.7697 26.9761 21.8497 26.1361 22.5964V24.9697C26.1361 25.7031 25.5361 26.3031 24.8027 26.3031H24.6427C24.7361 25.8764 24.8027 25.4364 24.8027 24.9697V11.6364C24.8027 3.63639 15.4694 3.63639 11.4694 3.63639C10.2561 3.63639 8.53607 3.63639 6.7494 3.86306C8.20273 1.39639 12.1361 0.969727 16.8027 0.969727C22.6961 0.969727 27.4694 1.63639 27.4694 6.30306Z" fill="#3479EA"/>
</svg>
