<svg width="24" height="20" viewBox="0 0 24 20" fill="none" xmlns="http://www.w3.org/2000/svg">
<path fill-rule="evenodd" clip-rule="evenodd" d="M24 7.17859C24.0034 7.00476 23.9602 6.83319 23.8748 6.68172C23.7895 6.53024 23.6651 6.4044 23.5147 6.31726L13.5227 0.45726C13.0719 0.19305 12.559 0.0534399 12.0365 0.052737C11.5141 0.0520342 11.0008 0.190264 10.5493 0.453261L0.490667 6.31593C0.339765 6.403 0.215001 6.52899 0.129397 6.68073C0.0437936 6.83247 0.00048793 7.00441 0.00400003 7.17859H0V13.0853H0.00533326C0.00941313 13.255 0.0578306 13.4207 0.145777 13.566C0.233723 13.7113 0.358139 13.831 0.506667 13.9133L10.5907 19.5706C11.0321 19.8181 11.5298 19.9477 12.0359 19.947C12.5419 19.9463 13.0393 19.8153 13.48 19.5666L23.5 13.9133C23.6481 13.8309 23.7721 13.7113 23.8598 13.5663C23.9475 13.4214 23.9958 13.256 24 13.0866V7.17859ZM2.352 7.92926C2.23637 7.86419 2.09962 7.84773 1.97184 7.88348C1.84407 7.91924 1.73573 8.00429 1.67067 8.11993C1.6056 8.23556 1.58913 8.37231 1.62489 8.50008C1.66065 8.62786 1.7457 8.73619 1.86133 8.80126L10.34 13.5839C10.8594 13.8762 11.4457 14.0291 12.0417 14.0277C12.6378 14.0263 13.2233 13.8707 13.7413 13.5759L22.112 8.79993C22.2273 8.73415 22.3117 8.62528 22.3467 8.49725C22.3817 8.36923 22.3644 8.23254 22.2987 8.11726C22.2329 8.00198 22.124 7.91755 21.996 7.88254C21.868 7.84754 21.7313 7.86482 21.616 7.93059L13.2453 12.7079C12.4987 13.1346 11.5813 13.1373 10.832 12.7133L2.352 7.92926Z" fill="#3479EA"/>
</svg>
