<svg width="256" height="266" viewBox="0 0 256 266" fill="none" xmlns="http://www.w3.org/2000/svg">
<rect x="0.855469" y="0.752441" width="254.904" height="264.277" rx="127.452" fill="white" fill-opacity="0.1"/>
<rect x="36.542" y="34.7102" width="183.531" height="183.531" rx="91.7655" fill="white" fill-opacity="0.2"/>
<path d="M128.308 168.96C151.772 168.96 170.792 149.939 170.792 126.476C170.792 103.012 151.772 83.9915 128.308 83.9915C104.844 83.9915 85.8237 103.012 85.8237 126.476C85.8237 149.939 104.844 168.96 128.308 168.96Z" stroke="white" stroke-width="5.09809" stroke-miterlimit="10" stroke-linejoin="round"/>
<path d="M128.308 151.966C135.068 151.966 141.552 149.28 146.332 144.5C151.113 139.72 153.798 133.236 153.798 126.476C153.798 119.715 151.113 113.231 146.332 108.451C141.552 103.671 135.068 100.985 128.308 100.985C121.547 100.985 115.064 103.671 110.283 108.451C105.503 113.231 102.817 119.715 102.817 126.476C102.817 133.236 105.503 139.72 110.283 144.5C115.064 149.28 121.547 151.966 128.308 151.966Z" stroke="white" stroke-width="5.09809" stroke-miterlimit="10" stroke-linejoin="round"/>
<path d="M128.308 134.972C130.561 134.972 132.723 134.077 134.316 132.483C135.909 130.89 136.805 128.729 136.805 126.475C136.805 124.222 135.909 122.061 134.316 120.467C132.723 118.874 130.561 117.979 128.308 117.979C126.054 117.979 123.893 118.874 122.3 120.467C120.706 122.061 119.811 124.222 119.811 126.475C119.811 128.729 120.706 130.89 122.3 132.483C123.893 134.077 126.054 134.972 128.308 134.972Z" stroke="white" stroke-width="5.09809" stroke-miterlimit="10" stroke-linejoin="round"/>
</svg>
