<svg width="255" height="265" viewBox="0 0 255 265" fill="none" xmlns="http://www.w3.org/2000/svg">
<rect y="0.723145" width="254.904" height="264.277" rx="127.452" fill="white" fill-opacity="0.1"/>
<rect x="35.6865" y="13.6868" width="183.531" height="183.531" rx="91.7655" fill="white" fill-opacity="0.2"/>
<path d="M120.221 118.013C119.418 117.951 118.67 117.578 118.138 116.971L105.638 104.471C105.36 103.888 105.269 103.233 105.378 102.596C105.487 101.959 105.791 101.372 106.248 100.915C106.705 100.458 107.293 100.154 107.93 100.045C108.566 99.9352 109.222 100.026 109.805 100.305L120.096 110.596L155.638 75.3046C156.221 75.0261 156.876 74.9352 157.513 75.0445C158.15 75.1538 158.738 75.4579 159.195 75.9148C159.652 76.3718 159.956 76.9591 160.065 77.5961C160.174 78.233 160.083 78.8881 159.805 79.4713L122.305 116.971C121.773 117.578 121.025 117.951 120.221 118.013Z" fill="white"/>
<path d="M126.472 141.971C119.769 141.96 113.193 140.154 107.425 136.739C101.658 133.324 96.9119 128.426 93.68 122.555C91.2266 118.178 89.7085 113.34 89.2216 108.346C88.4591 101.022 89.87 93.6344 93.2785 87.1065C96.687 80.5785 101.942 75.1986 108.388 71.6378C112.765 69.1845 117.603 67.6663 122.597 67.1795C127.572 66.6489 132.604 67.1308 137.388 68.5962C137.815 68.6815 138.22 68.855 138.576 69.1057C138.931 69.3564 139.231 69.6787 139.455 70.0519C139.679 70.4252 139.823 70.8411 139.877 71.2731C139.931 71.7051 139.894 72.1436 139.769 72.5605C139.643 72.9774 139.432 73.3635 139.149 73.6941C138.866 74.0247 138.516 74.2924 138.124 74.4801C137.731 74.6679 137.303 74.7714 136.868 74.7843C136.433 74.7971 136 74.7188 135.597 74.5545C131.55 73.3353 127.299 72.9386 123.097 73.3878C118.942 73.8098 114.916 75.0714 111.263 77.0962C107.743 79.0383 104.631 81.6414 102.097 84.7628C99.4877 87.9427 97.5395 91.6111 96.3662 95.5533C95.1928 99.4955 94.8179 103.632 95.2633 107.721C95.6853 111.876 96.9469 115.902 98.9716 119.555C100.914 123.075 103.517 126.187 106.638 128.721C109.818 131.33 113.487 133.278 117.429 134.452C121.371 135.625 125.508 136 129.597 135.555C133.752 135.133 137.777 133.871 141.43 131.846C144.95 129.904 148.063 127.301 150.597 124.18C153.206 121 155.154 117.331 156.327 113.389C157.5 109.447 157.875 105.31 157.43 101.221C157.347 100.354 157.612 99.4888 158.167 98.8168C158.722 98.1448 159.521 97.7207 160.388 97.6378C161.256 97.555 162.121 97.8201 162.793 98.3749C163.465 98.9297 163.889 99.7287 163.972 100.596C164.73 107.925 163.313 115.315 159.897 121.844C156.481 128.372 151.217 133.75 144.763 137.305C140.34 139.858 135.427 141.449 130.347 141.971H126.472Z" fill="white"/>
</svg>
