<svg width="29" height="25" viewBox="0 0 29 25" fill="none" xmlns="http://www.w3.org/2000/svg">
<path d="M26.6361 1.96973H11.9694C11.6158 1.96973 11.2766 2.1102 11.0266 2.36025C10.7765 2.6103 10.6361 2.94944 10.6361 3.30306V17.9697C10.6361 18.3233 10.7765 18.6625 11.0266 18.9125C11.2766 19.1626 11.6158 19.3031 11.9694 19.3031H26.6361C26.9897 19.3031 27.3288 19.1626 27.5789 18.9125C27.8289 18.6625 27.9694 18.3233 27.9694 17.9697V3.30306C27.9694 2.94944 27.8289 2.6103 27.5789 2.36025C27.3288 2.1102 26.9897 1.96973 26.6361 1.96973ZM1.30273 19.3031H10.6361V9.96973H5.9694L1.30273 14.2777V19.3031Z" fill="#3479EA" stroke="#3479EA" stroke-width="2" stroke-linejoin="round"/>
<path d="M10.6361 20.6364C10.6361 21.3436 10.3551 22.0219 9.85502 22.522C9.35492 23.0221 8.67665 23.303 7.9694 23.303C7.26216 23.303 6.58388 23.0221 6.08378 22.522C5.58369 22.0219 5.30273 21.3436 5.30273 20.6364M25.3027 20.6364C25.3027 21.3436 25.0218 22.0219 24.5217 22.522C24.0216 23.0221 23.3433 23.303 22.6361 23.303C21.9288 23.303 21.2505 23.0221 20.7505 22.522C20.2504 22.0219 19.9694 21.3436 19.9694 20.6364" stroke="#3479EA" stroke-width="2" stroke-linecap="round" stroke-linejoin="round"/>
</svg>
