<svg width="255" height="255" viewBox="0 0 255 255" fill="none" xmlns="http://www.w3.org/2000/svg">
<rect width="254.904" height="254.904" rx="127.452" fill="#3479EA" fill-opacity="0.1"/>
<rect x="35.6865" y="35.6868" width="183.531" height="183.531" rx="91.7655" fill="#3479EA" fill-opacity="0.2"/>
<path fill-rule="evenodd" clip-rule="evenodd" d="M88.1594 129.69L86.7282 126.471L88.1594 123.252C91.4529 115.841 96.8252 109.544 103.625 105.124C110.426 100.705 118.362 98.3526 126.472 98.3526C134.582 98.3526 142.518 100.705 149.318 105.124C156.119 109.544 161.491 115.841 164.784 123.252L166.209 126.471L164.778 129.69C161.484 137.099 156.112 143.395 149.312 147.813C142.513 152.231 134.578 154.583 126.469 154.583C118.36 154.583 110.425 152.231 103.626 147.813C96.826 143.395 91.4537 137.099 88.1594 129.69ZM79.5969 119.446L77.9719 123.102C77.5008 124.164 77.2573 125.313 77.2573 126.474C77.2573 127.636 77.5008 128.784 77.9719 129.846L79.5969 133.496C83.6281 142.562 90.2017 150.265 98.5215 155.67C106.841 161.076 116.55 163.953 126.472 163.953C136.394 163.953 146.103 161.076 154.422 155.67C162.742 150.265 169.316 142.562 173.347 133.496L174.972 129.846C175.444 128.784 175.688 127.634 175.688 126.471C175.688 125.308 175.444 124.159 174.972 123.096L173.347 119.446C169.316 110.38 162.742 102.678 154.422 97.272C146.103 91.8662 136.394 88.989 126.472 88.989C116.55 88.989 106.841 91.8662 98.5215 97.272C90.2017 102.678 83.6281 110.38 79.5969 119.446ZM135.847 126.471C135.847 128.958 134.859 131.342 133.101 133.1C131.343 134.858 128.958 135.846 126.472 135.846C123.986 135.846 121.601 134.858 119.843 133.1C118.085 131.342 117.097 128.958 117.097 126.471C117.097 123.985 118.085 121.6 119.843 119.842C121.601 118.084 123.986 117.096 126.472 117.096C128.958 117.096 131.343 118.084 133.101 119.842C134.859 121.6 135.847 123.985 135.847 126.471ZM145.222 126.471C145.222 131.444 143.246 136.213 139.73 139.729C136.214 143.246 131.445 145.221 126.472 145.221C121.499 145.221 116.73 143.246 113.214 139.729C109.697 136.213 107.722 131.444 107.722 126.471C107.722 121.498 109.697 116.729 113.214 113.213C116.73 109.697 121.499 107.721 126.472 107.721C131.445 107.721 136.214 109.697 139.73 113.213C143.246 116.729 145.222 121.498 145.222 126.471Z" fill="white"/>
</svg>
